<svg xmlns="http://www.w3.org/2000/svg" viewBox="0 0 20 20"><path fill="#89859c" d="M9.999,0.001c-2.716,0-3.057,0.012-4.123,0.061C4.812,0.111,4.085,0.279,3.45,0.527C2.793,0.781,2.235,1.124,1.678,1.679C1.123,2.236,0.78,2.793,0.524,3.452C0.276,4.087,0.107,4.814,0.06,5.878C0.012,6.945,0,7.286,0,10.001s0.012,3.056,0.061,4.122c0.049,1.064,0.218,1.791,0.465,2.427c0.256,0.658,0.597,1.216,1.154,1.771c0.555,0.557,1.113,0.899,1.77,1.154c0.637,0.248,1.362,0.416,2.427,0.464C6.944,19.988,7.284,20,9.999,20s3.055-0.012,4.123-0.061c1.065-0.049,1.792-0.217,2.428-0.464c0.657-0.256,1.215-0.599,1.77-1.154c0.557-0.555,0.898-1.114,1.154-1.771c0.246-0.636,0.414-1.364,0.465-2.427C19.986,13.056,20,12.716,20,10s-0.012-3.056-0.061-4.123c-0.05-1.064-0.219-1.791-0.465-2.427c-0.256-0.658-0.597-1.216-1.154-1.771c-0.557-0.557-1.112-0.898-1.77-1.154c-0.638-0.248-1.365-0.416-2.43-0.464C13.053,0.012,12.715,0,9.998,0L9.999,0.001zM9.103,1.804c0.267,0,0.563,0,0.897,0c2.669,0,2.986,0.009,4.04,0.057c0.975,0.045,1.505,0.207,1.857,0.344c0.467,0.181,0.799,0.398,1.149,0.747c0.349,0.349,0.566,0.684,0.749,1.15c0.137,0.352,0.299,0.882,0.344,1.856c0.047,1.055,0.058,1.37,0.058,4.039s-0.011,2.986-0.058,4.039c-0.045,0.975-0.207,1.504-0.344,1.856c-0.181,0.467-0.398,0.799-0.749,1.148c-0.349,0.349-0.683,0.566-1.149,0.747c-0.352,0.138-0.882,0.301-1.857,0.344c-1.054,0.047-1.371,0.058-4.04,0.058s-2.986-0.011-4.04-0.058c-0.975-0.045-1.505-0.209-1.857-0.345c-0.467-0.181-0.8-0.398-1.15-0.747c-0.349-0.349-0.566-0.682-0.749-1.15c-0.137-0.352-0.299-0.882-0.344-1.856c-0.047-1.055-0.057-1.37-0.057-4.042S1.812,7.006,1.86,5.953c0.045-0.975,0.207-1.504,0.344-1.856c0.181-0.467,0.398-0.8,0.749-1.15C3.302,2.6,3.635,2.383,4.102,2.202c0.352-0.138,0.882-0.301,1.857-0.345C6.882,1.814,7.239,1.802,9.103,1.8V1.804zM15.338,3.464c-0.662,0-1.2,0.536-1.2,1.2c0,0.662,0.538,1.2,1.2,1.2s1.2-0.538,1.2-1.2S16.001,3.464,15.338,3.464L15.338,3.464zM9.999,4.867c-2.836,0-5.136,2.299-5.136,5.136s2.3,5.135,5.136,5.135s5.134-2.298,5.134-5.135S12.835,4.867,9.999,4.867L9.999,4.867zM9.999,6.669c1.841,0,3.333,1.492,3.333,3.334c0,1.84-1.493,3.334-3.333,3.334s-3.333-1.492-3.333-3.334C6.666,8.161,8.159,6.669,9.999,6.669z"/></svg>