<svg xmlns="http://www.w3.org/2000/svg" viewBox="0 0 128 99"><path fill="#ffffff" d="M85.44,16.49l0.47,5.55c2.9,0.35,5.71,1.08,8.26,2.48l1.03-7.07l0.53,0.24l0.2-1.22l-5.12-2.92l0-0.02l0,0l-0.02,0.01l-0.02-0.01l0,0.01l-6.08,1.75l0.12,1.31L85.44,16.49zM75.2,46.46c0.1-0.55,0.26-1.16,0.62-1.61c-0.01,0-0.02,0-0.03,0c-0.73,0.02-1.84-0.06-3.41-0.26c-1.57-0.2-2.83-0.3-3.69-0.28c-0.61,0.01-1.02,0.39-1.23,1.13C67.16,46.6,67,49.45,67,53.98c0,0.86,0.91,1.29,2.11,1.59c2.18,0.55,3.95,0.89,6,1.21c-0.19-0.26-0.3-0.58-0.32-0.95c-0.07-1.31,0-2.65,0.03-3.97C74.86,50.06,74.88,48.23,75.2,46.46zM90.43,11.32c0.22,0.58,0.58,1.18,1.14,1.53c0.12,0.08,0.31,0.18,0.46,0.18c0.12,0,0.25-0.03,0.37-0.05c0.26-0.22,0.4-0.37,0.48-0.69c0.19-0.69,0.09-1.54-0.03-2.24c-0.07-0.43-0.16-0.89-0.08-1.34c0.12-0.63,0.55-1.12,1.01-1.59c0.51-0.52,1.05-1.04,1.42-1.64c0.25-0.41,0.42-0.81,0.55-1.27c0.22-0.8,0.09-1.77-0.16-2.5c-0.13-0.39-0.29-0.76-0.49-1.11C94.97,0.37,94.8,0.09,94.53,0c-0.12,0.2-0.11,0.44-0.09,0.68c0.03,0.39,0.07,0.76,0.09,1.15c0.04,0.77-0.04,1.49-0.38,2.07c-0.47,0.82-1.42,1.34-2.14,1.92c-1.34,1.08-2.01,2.59-1.84,4.42C90.21,10.63,90.3,10.98,90.43,11.32zM72.36,23.75c-5.08,1.32-7.93,2.38-8.17,3.31c-0.13,0.53,0.39,4,0.41,4.36c0.11,1.64,0.04,3.11,0.25,4.37c0.14,0.88,0.54,1.29,0.89,1.31c0.11,0,0.23-0.02,0.36-0.03c2.21-0.22,4.92-0.05,6.94-0.2c-0.35-0.38-0.56-0.88-0.64-1.43c-0.3-2.03-0.19-4.09-0.4-6.13c-0.14-1.33-0.55-2.93-0.31-4.27C71.76,24.53,72.02,24.1,72.36,23.75zM63.19,14.51l-19.12-3.26l-10.31,7.89l19.61,5.83L63.19,14.51zM72.02,69.49c0.22-0.97,0.25-2.36,0.99-3.09c0.42-0.41,1.08-0.55,1.67-0.59c-0.01,0-0.03-0.01-0.04-0.01c0.01,0,0.01,0,0.02,0c-0.01,0,0,0.01,0.02,0.02c0.1-0.01,0.2-0.01,0.29-0.01c1.3,0,2.54,0.35,3.82,0.52c1.31,0.18,2.64,0.25,3.96,0.15c2.03-0.15,4.4-0.74,5.97-2.11c2.17-1.89,3.3-6.96-0.49-7.67c-2.32-0.43-4.72,0.2-7,0.58c-0.01,0-0.01,0-0.02,0c0.01,0.13,0.02,0.27,0.02,0.41c-0.03,3.36-1.84,5.44-6.2,6.41c-1.32,0.29-3.07,0.22-5.37-0.27c-2.31-0.48-3.12-0.84-3.45-0.77c-0.64,0.13-0.96,0.55-1.2,1.35c-0.55,2.31-0.93,4.08-1.15,5.26c-0.75,2.44-1.33,4.31-1.73,5.57c-0.11,0.4-0.17,0.7-0.17,0.89c-0.03,0.8,1.39,2.13,3.75,3.4c1.27,0.64,2.39,1.03,3.53,1.35c-0.2-0.52-0.06-1.12,0.11-1.65c0.29-0.92,0.58-1.84,0.86-2.76c0.39-1.27,0.89-2.56,1.14-3.87C71.57,71.55,71.79,70.52,72.02,69.49zM96.66,48.76c1.68-1.48,2.87-3.28,3.61-5.26l1.03-0.18l4.04-15.25l-9.63-1.01c-0.62-0.48-1.29-0.93-1.99-1.32c-4.55-2.56-10.2-2.94-15.31-2.54c-1.13,0.09-2.28,0.22-3.37,0.56c-0.61,0.19-1.49,0.46-1.87,1.04c-0.57,0.88-0.07,2.55,0.03,3.51c0.2,1.92,0.21,3.84,0.35,5.76c0.02,0.32,0.03,1.89,0.5,1.97c0.51,0.08,1.37-0.37,1.87-0.51c1.13-0.31,2.27-0.59,3.42-0.77c3.13-0.48,7.9-0.43,9.51,2.94c0.82,1.7,0.92,3.82,0.21,5.58c-0.85,2.09-2.7,2.88-4.84,2.75c-1.4-0.08-2.79-0.3-4.19-0.44c-0.63-0.06-2.7-0.53-3.17,0.06c-0.42,0.52-0.45,1.43-0.52,2.07c-0.09,0.9-0.14,1.8-0.17,2.7c-0.05,1.36-0.08,2.71-0.08,4.07c0,0.39-0.21,1.43,0.23,1.67c0.34,0.19,0.74,0.25,1.13,0.22c2.09-0.13,4.14-0.58,6.2-0.89c3.07-0.47,7.64-0.7,8.28,3.3c0.59,3.67-1.62,6.75-4.94,8.05c-2.15,0.84-4.41,1.12-6.71,0.96c-1.45-0.1-2.85-0.48-4.29-0.62c-0.34-0.03-2.03-0.28-2.16,0.27c-0.56,2.41-0.98,4.88-1.7,7.24c-0.37,1.21-0.74,2.42-1.12,3.62c-0.13,0.41-0.28,0.82-0.39,1.24c-0.06,0.25-0.17,0.53-0.17,0.79c0.37,0.33,1.06,0.4,1.52,0.45c0.96,0.11,1.93,0.14,2.9,0.12c2.63-0.04,5.29-0.21,7.87-0.77c4.71-1.03,9.51-2.59,13.2-5.8c2.18-1.59,4.36-3.69,6.55-6.11l1.6-21.74l-7.22,3.34C96.5,49.65,96.26,49.11,96.66,48.76zM99.8,29.08l2.9,0.69l-0.94,4.72l-2.72,0.2L99.8,29.08zM98.87,35.89l2.71-0.29l-1.72,7.22l-1.98,0.33L98.87,35.89zM92.81,27.4l4.81,1.14l-0.45,6.27l-3.89,0.29L92.81,27.4zM97.15,36l-0.54,7.36l-0.71,0.12l-2.09,0.35l-0.29-4.78l-0.16-2.61L97.15,36zM101.76,67.73c-2.62,2.9-4.69,4.75-7.3,6.25l-0.61-11.84l-0.38-8.88l9.39-4.08L101.76,67.73zM62.42,54.05c0-0.12,0.01-0.24,0.01-0.37c-0.05-7.36-0.07-12.86-0.07-16.51c0-7.92,0.06-12.61,0.24-15.66l5.09,0.74l-4.25-6.88l-9.65,11.64l-16.92-5.89c-1.77,1.27-3.74,2.37-5.89,3.3c-0.74,0.31-1.12,0.76-1.12,1.36c-0.01,1.04,0,2.56,0.02,4.59c0.02,2.02,0.03,3.54,0.02,4.55c0,1.1,0.45,1.66,1.38,1.69c0.63,0.02,1.55-0.14,2.79-0.47c1.24-0.33,2.18-0.5,2.81-0.48c0.4,0.01,0.61,0.44,0.61,1.3l-0.05,12.19l-4.16,1.42l1.51,4.54c-6.95-0.1-20.79,0.51-25.47,2.5C4.3,59.75,2,63.12,2,66.82c0,2.54,1,4.87,3,6.97c0.29,0.3,2.14,1.83,5.56,4.58c1.97,1.62,2.95,3.08,2.95,4.39c0,2.06-1.51,3.62-4.51,4.67c-1.36,0.47-4.14,1.03-8.34,1.7C0.22,89.18,0,89.32,0,89.55c0,0.6,2.44,3.91,2.87,4.49c1.8-0.34,3.51-0.72,5.13-1.14l0.35-0.1l0.49,1.31L8.3,94.26c-1.42,0.36-2.91,0.7-4.45,1c0.4,0.53,3.34,3.74,4,3.74c0.15,0,0.33-0.01,0.56-0.03c6.22-0.71,11.51-2.35,15.85-4.94c4.95-2.93,7.42-6.44,7.42-10.54c0-2.21-1.03-4.42-3.08-6.64c-0.17-0.16-2.1-1.86-5.77-5.09c-2.08-1.8-3.12-3.31-3.12-4.55c0-1.37,0.96-2.39,2.82-3.21c2.19-0.96,11.25-2.28,14.55-2.06l0.02,0.07c-0.11,2.84-0.24,6.17-0.39,9.99l-0.05,0.5c-0.04,0.99,0.53,1.58,1.7,1.77c1.53,0.25,3.84,0.62,7.06,1.12c3.22,0.5,5.74,0.9,7.44,1.18c0.13,0.02,0.25,0.05,0.36,0.07h0c0.45,0.09,0.78,0.11,1.48-0.43c2.25-0.85,4.82-2.61,6.85-4.61l-0.03-0.06c0.06-0.29,0.37-2.06,0.37-2.61v-0.05l2.31-15.01L62.42,54.05zM9.91,67.84l-0.1-0.44c-0.12-0.75-0.1-1.48,0.1-2.2c0.51-1.9,2.15-3.46,4.92-4.65l0.99-0.39l0.54,1.28l-0.01,0c-3.12,1.13-4.69,2.57-5.11,4.11c-0.14,0.51-0.16,1.07-0.05,1.66l0.05,0.21L9.91,67.84zM11.06,70.46l-0.1-0.18l1.38-0.41l0.37,0.54c1.19,1.6,3.03,3.35,5.54,5.18l0.43,0.31l-0.91,1.04l-1.33-0.97C14.08,74.14,12.22,72.28,11.06,70.46zM20.82,77.47l0.59,0.49c3.55,3.16,3.97,6.28,1.84,9.01l-0.12,0.14l-0.87-1.14l0.2-0.27c1.29-1.96,0.94-4.18-2-6.73l-0.55-0.45L20.82,77.47zM20.35,87.82l0.84,1.11l-0.78,0.55c-1.72,1.14-3.93,2.17-6.5,3.09l-2.53,0.83L10.9,92.1l2.55-0.84c2.48-0.89,4.57-1.87,6.17-2.92L20.35,87.82zM26.66,59.53c-2.57,0.21-4.78,0.52-6.65,0.91l-1.11,0.26l-0.55-1.3l0.07-0.02c2.26-0.56,4.97-0.98,8.12-1.24l0.74-0.06l0.09,1.39L26.66,59.53zM30.27,59.24L30,59.26l-0.09-1.39l0.25-0.02c2.02-0.16,3.81-0.29,5.42-0.4l0.45,1.37C34.34,58.93,32.43,59.07,30.27,59.24zM37.03,56.19l-1.15-4.5l2.69-1.28l1.04,5.42L37.03,56.19zM39.29,64.1l-2.03-6.83l2.56-0.27l1.34,7.01L39.29,64.1zM45.04,63.85l-2.66,0.12l-0.92-7.21l3.59-0.35L45.04,63.85zM45.04,55.07l-3.68,0.51l-0.78-6.15l4.46-2.13L45.04,55.07zM44.73,42.68l-1.72-0.5l0.23-6.77l2.39,0.54L44.73,42.68zM43.37,34.38l0.32-4.4l2.8-0.33l-0.7,5.2L43.37,34.38zM48.27,43.71l-2.43-0.71l1.35-6.78l3.34,0.78L48.27,43.71zM50.93,35.79l0,0.01l-3.47-0.66l1.15-5.78l4.66-0.56L50.93,35.79zM57.13,31.06l3.8-1.09v2.8l-3.8,1.09V31.06zM61.12,38.02v2.8l-3.8,1.09v-2.8L61.12,38.02zM57.13,46.27l3.8-1.09v2.8l-3.8,1.09V46.27zM60.82,71.48c-2.38,2.07-4.03,3.25-6.35,4.27l0.06-16.24l8.45-2.79L60.82,71.48zM115.88,64.39c-0.95,0.33-1.43,0.81-1.46,0.76c-0.36-0.54-1.23-1.61-2.87-1.55c-0.98,0.03-0.51,1.8-0.47,2.01c0.17,0.39-0.85,9.58-0.85,10.25c0,0.6,0.46,0.88,0.58,0.97c0.12,0.08,1.86,1.04,1.94,1.07c0.68,0.24,0.9-0.12,0.97-0.45c0.33-1.85,0.03-3.34,0.58-8.91c0.05-0.49,0.37-0.62,0.9-0.8c0.59-0.2,1.18-0.24,2.07-0.41c0.63-0.12-0.02-2.05-0.21-2.54C116.81,64.06,115.88,64.39,115.88,64.39zM106.3,73.48c-0.38-0.12-1.27-0.4-1.65,0.05c-0.36,0.44-0.23,3.09,0.22,3.54c0.45,0.45,1.32,0.76,1.59,0.85c1.23,0.42,1.67,0.02,1.74-0.19c0.14-0.41,0.27-1.26,0.27-2.35C108.47,74.95,108.51,74.16,106.3,73.48zM77.69,44.1c0.38,0,0.76,0.03,1.13,0.06c1.45,0.1,2.89,0.33,4.34,0.46c0.94,0.08,2.13,0.3,3.03-0.08c2.12-0.88,2.52-4.09,1.61-5.99c-0.82-1.71-2.61-2.4-4.4-2.59c-2.09-0.23-4.15,0.11-6.18,0.62c-0.09,0.02-0.19,0.05-0.28,0.08c1.41,0.82,2.06,2.19,2.07,4.09c0,1.16-0.29,2.12-0.9,2.89C77.98,43.82,77.84,43.97,77.69,44.1zM127.92,77.98c-0.26-0.69-0.47-1.47-0.6-2.26c-0.13-0.78-0.2-1.57-0.19-2.5c0.02-2.34,0.56-5.64,0.66-6.5c0.03-0.22,0.05-0.83-0.1-1.1c-0.08-0.14-0.22-0.45-1.73-1.12c-0.39-0.17-1.04-0.25-1.19,0.3c-0.35,1.32-0.62,3.32-0.78,4.61c-0.26,2.16-0.16,4.19-0.2,4.24c-0.85,0.97-1.93,1.88-2.37,0.89c-0.81-1.82,0.17-6.76,0.56-8.55c0.03-0.12,0.07-0.31,0.08-0.56c0.03-0.69-1.85-1.38-2.71-1.38c-0.63,0-0.88,0.63-0.94,0.94c-0.47,2.28-0.83,5.98-0.86,7.27c-0.1,4.25,2.28,5.54,3.87,5.68c1.33,0.07,2.19-0.36,2.85-1.12c0.23-0.27,0.32,0.53,0.63,0.94c0.46,0.61,2.46,0.88,2.46,0.88C127.83,78.72,128.16,78.62,127.92,77.98z"/></svg>