<svg xmlns="http://www.w3.org/2000/svg" viewBox="0 0 24 20"><path fill="#89859c" d="M23.29,3.948C23.455,3.402,23.29,3,22.507,3h-2.589c-0.658,0-0.962,0.347-1.127,0.73c0,0-1.317,3.196-3.182,5.273c-0.604,0.601-0.878,0.792-1.207,0.792C14.238,9.795,14,9.604,14,9.057V3.948C14,3.292,13.809,3,13.26,3H9.192C8.78,3,8.533,3.304,8.533,3.593c0,0.621,0.932,0.765,1.028,2.514v3.798c0,0.832-0.151,0.984-0.48,0.984c-0.878,0-3.013-3.211-4.279-6.884C4.554,3.289,4.305,3,3.643,3H1.054c-0.74,0-0.888,0.347-0.888,0.73c0,0.684,0.878,4.071,4.087,8.551c2.139,3.06,5.153,4.718,7.896,4.718c1.646,0,1.85-0.369,1.85-1.003v-2.311c0-0.737,0.156-0.884,0.677-0.884c0.385,0,1.043,0.191,2.579,1.667C19.011,16.216,19.3,17,20.288,17h2.589c0.74,0,1.11-0.369,0.896-1.095c-0.233-0.725-1.072-1.776-2.183-3.022c-0.604-0.711-1.509-1.476-1.783-1.858c-0.385-0.491-0.275-0.711,0-1.148C19.807,9.876,22.961,5.45,23.29,3.948z"/></svg>